<svg viewBox="0 0 60 60" xmlns="http://www.w3.org/2000/svg"><rect fill="#1f1e1e" height="60" rx="10" width="60" class="fill-ffffff fill-1f1e1e"></rect><path d="M24 53.5a1.5 1.5 0 0 1-1.393-2.057l2.377-5.943H22.8a1.5 1.5 0 0 1-1.393-2.057l3.2-8a1.5 1.5 0 0 1 2.786 1.114L25.016 42.5H27.2a1.5 1.5 0 0 1 1.393 2.057l-3.2 8A1.5 1.5 0 0 1 24 53.5Z" fill="#f2bf80" class="fill-f2bf80"></path><circle cx="44" cy="16" fill="#eff28d" r="8" class="fill-eff28d"></circle><path d="M44 25.5a9.5 9.5 0 1 1 9.5-9.5 9.511 9.511 0 0 1-9.5 9.5Zm0-16a6.5 6.5 0 1 0 6.5 6.5A6.508 6.508 0 0 0 44 9.5Z" fill="#f2bf80" class="fill-f2bf80"></path><path d="M44 20a7.992 7.992 0 0 0-2.544.42 12 12 0 0 0-22.912 0A8 8 0 1 0 16 36h28a8 8 0 0 0 0-16Z" fill="#1f1e1e" class="fill-f1f3f4"></path><path d="M44 37.5H16a9.5 9.5 0 0 1 0-19 9.394 9.394 0 0 1 1.605.139 13.508 13.508 0 0 1 24.79 0A9.394 9.394 0 0 1 44 18.5a9.5 9.5 0 0 1 0 19Zm-28-16a6.5 6.5 0 0 0 0 13h28a6.5 6.5 0 1 0-2.066-12.658 1.5 1.5 0 0 1-1.91-.975 10.5 10.5 0 0 0-20.048 0 1.5 1.5 0 0 1-1.91.975A6.476 6.476 0 0 0 16 21.5Z" fill="#ffffff" class="fill-8d9cf4"></path><path d="M18.544 21.92a1.5 1.5 0 0 1-1.432-1.947A13.439 13.439 0 0 1 30 10.5a1.5 1.5 0 0 1 0 3 10.452 10.452 0 0 0-10.024 7.367 1.5 1.5 0 0 1-1.432 1.053Z" fill="#ffffff" class="fill-bec6f4"></path><path d="M14 47.5a1.5 1.5 0 0 1-1.341-2.171l2-4a1.5 1.5 0 1 1 2.684 1.342l-2 4A1.5 1.5 0 0 1 14 47.5ZM34 47.5a1.5 1.5 0 0 1-1.341-2.171l2-4a1.5 1.5 0 1 1 2.684 1.342l-2 4A1.5 1.5 0 0 1 34 47.5ZM44 47.5a1.5 1.5 0 0 1-1.341-2.171l2-4a1.5 1.5 0 1 1 2.684 1.342l-2 4A1.5 1.5 0 0 1 44 47.5ZM8 29.5A1.5 1.5 0 0 1 6.5 28a9.488 9.488 0 0 1 12.521-9 1.5 1.5 0 1 1-.955 2.844A6.487 6.487 0 0 0 9.5 28 1.5 1.5 0 0 1 8 29.5Z" fill="#ffffff" class="fill-8d9cf4"></path></svg>